<?xml version="1.0" encoding="utf-8"?>
<svg version="1.1" xmlns:xlink="http://www.w3.org/1999/xlink" width="80px" height="80px" xmlns="http://www.w3.org/2000/svg">
  <defs>
    <filter x="1244px" y="1164px" width="80px" height="80px" filterUnits="userSpaceOnUse" id="filter523">
      <feOffset dx="0" dy="0" in="SourceAlpha" result="shadowOffsetInner" />
      <feGaussianBlur stdDeviation="10" in="shadowOffsetInner" result="shadowGaussian" />
      <feComposite in2="shadowGaussian" operator="atop" in="SourceAlpha" result="shadowComposite" />
      <feColorMatrix type="matrix" values="0 0 0 0 1  0 0 0 0 1  0 0 0 0 1  0 0 0 0.349019607843137 0  " in="shadowComposite" />
    </filter>
    <g id="widget524">
      <path d="M 1284 1184  C 1295.2 1184  1304 1192.8  1304 1204  C 1304 1215.2  1295.2 1224  1284 1224  C 1272.8 1224  1264 1215.2  1264 1204  C 1264 1192.8  1272.8 1184  1284 1184  Z " fill-rule="nonzero" fill="#aaaaaa" stroke="none" />
      <path d="M 1284 1184.5  C 1294.92 1184.5  1303.5 1193.08  1303.5 1204  C 1303.5 1214.92  1294.92 1223.5  1284 1223.5  C 1273.08 1223.5  1264.5 1214.92  1264.5 1204  C 1264.5 1193.08  1273.08 1184.5  1284 1184.5  Z " stroke-width="1" stroke="#ffffff" fill="none" />
    </g>
  </defs>
  <g transform="matrix(1 0 0 1 -1244 -1164 )">
    <use xlink:href="#widget524" filter="url(#filter523)" />
    <use xlink:href="#widget524" />
  </g>
</svg>