<?xml version="1.0" encoding="utf-8"?>
<svg version="1.1" xmlns:xlink="http://www.w3.org/1999/xlink" width="90px" height="90px" xmlns="http://www.w3.org/2000/svg">
  <defs>
    <filter x="205px" y="3927px" width="90px" height="90px" filterUnits="userSpaceOnUse" id="filter99">
      <feOffset dx="0" dy="0" in="SourceAlpha" result="shadowOffsetInner" />
      <feGaussianBlur stdDeviation="10" in="shadowOffsetInner" result="shadowGaussian" />
      <feComposite in2="shadowGaussian" operator="atop" in="SourceAlpha" result="shadowComposite" />
      <feColorMatrix type="matrix" values="0 0 0 0 1  0 0 0 0 1  0 0 0 0 1  0 0 0 0.349019607843137 0  " in="shadowComposite" />
    </filter>
    <g id="widget100">
      <path d="M 250 3947  C 264 3947  275 3958  275 3972  C 275 3986  264 3997  250 3997  C 236 3997  225 3986  225 3972  C 225 3958  236 3947  250 3947  Z " fill-rule="nonzero" fill="#ffffff" stroke="none" />
      <path d="M 250 3947.5  C 263.72 3947.5  274.5 3958.28  274.5 3972  C 274.5 3985.72  263.72 3996.5  250 3996.5  C 236.28 3996.5  225.5 3985.72  225.5 3972  C 225.5 3958.28  236.28 3947.5  250 3947.5  Z " stroke-width="1" stroke="#ffffff" fill="none" />
    </g>
  </defs>
  <g transform="matrix(1 0 0 1 -205 -3927 )">
    <use xlink:href="#widget100" filter="url(#filter99)" />
    <use xlink:href="#widget100" />
  </g>
</svg>