<?xml version="1.0" encoding="utf-8"?>
<svg version="1.1" xmlns:xlink="http://www.w3.org/1999/xlink" width="40px" height="40px" preserveAspectRatio="xMinYMid meet" viewBox="378 3757  40 38" xmlns="http://www.w3.org/2000/svg">
  <g transform="matrix(-0.829037572555033 -0.559192903470749 0.559192903470749 -0.829037572555045 -1383.55544962865 7129.00464954921 )">
    <path d="M 282.5 3807.5  A 3.5 3.5 0 0 0 279 3811 A 3.5 3.5 0 0 0 282.5 3814.5 A 3.5 3.5 0 0 0 286 3811 A 3.5 3.5 0 0 0 282.5 3807.5 Z M 402 3820.5  L 416 3811  L 402 3801.5  L 402 3820.5  Z " fill-rule="nonzero" fill="#ffff80" stroke="none" transform="matrix(0.826432000444608 -0.563036542900302 0.563036542900302 0.826432000444608 -2085.41738514755 857.122844963455 )" />
    <path d="M 281 3811  L 404 3811  " stroke-width="2" stroke-dasharray="6,2" stroke="#ffff80" fill="none" transform="matrix(0.826432000444608 -0.563036542900302 0.563036542900302 0.826432000444608 -2085.41738514755 857.122844963455 )" />
  </g>
</svg>