<?xml version="1.0" encoding="utf-8"?>
<svg version="1.1" xmlns:xlink="http://www.w3.org/1999/xlink" width="50px" height="50px" xmlns="http://www.w3.org/2000/svg">
  <g transform="matrix(1 0 0 1 -2123 -1701 )">
    <path d="M 2148 1701  C 2162 1701  2173 1712  2173 1726  C 2173 1740  2162 1751  2148 1751  C 2134 1751  2123 1740  2123 1726  C 2123 1712  2134 1701  2148 1701  Z " fill-rule="nonzero" fill="#ffffff" stroke="none" />
    <path d="M 2148 1701.5  C 2161.72 1701.5  2172.5 1712.28  2172.5 1726  C 2172.5 1739.72  2161.72 1750.5  2148 1750.5  C 2134.28 1750.5  2123.5 1739.72  2123.5 1726  C 2123.5 1712.28  2134.28 1701.5  2148 1701.5  Z " stroke-width="1" stroke="#797979" fill="none" />
  </g>
</svg>