<?xml version="1.0" encoding="utf-8"?>
<svg version="1.1" xmlns:xlink="http://www.w3.org/1999/xlink" width="20px" height="20px" preserveAspectRatio="xMinYMid meet" viewBox="2035 1231  20 18" xmlns="http://www.w3.org/2000/svg">
  <path d="M 597 1343  L 602 1343  A 5 5 0 0 1 607 1348 L 607 1499.61538461538  A 5 5 0 0 0 612 1504.61538461538 L 1322.69230769231 1504.61538461538  A 0.307692307692264 0.307692307692264 0 0 0 1323 1504.30769230769 A 0.307692307692378 0.307692307692378 0 0 1 1323.30769230769 1504 L 1990 1504  A 5 5 0 0 0 1995 1499 L 1995 1245  A 5 5 0 0 1 2000 1240 L 2044 1240  " stroke-width="2" stroke="#7f7f7f" fill="none" />
  <path d="M 2043 1247.6  L 2050 1240  L 2043 1232.4  L 2043 1247.6  Z " fill-rule="nonzero" fill="#7f7f7f" stroke="none" />
</svg>