<?xml version="1.0" encoding="utf-8"?>
<svg version="1.1" xmlns:xlink="http://www.w3.org/1999/xlink" width="276px" height="276px" xmlns="http://www.w3.org/2000/svg">
  <defs>
    <mask fill="white" id="clip1">
      <path d="M 276 138  C 276 215.28  215.28 276  138 276  C 60.72 276  0 215.28  0 138  C 0 60.72  60.72 0  138 0  C 215.28 0  276 60.72  276 138  Z M 18 138  C 18 205.2  70.8 258  138 258  C 205.2 258  258 205.2  258 138  C 258 70.8  205.2 18  138 18  C 70.8 18  18 70.8  18 138  Z " fill-rule="evenodd" />
    </mask>
  </defs>
  <g transform="matrix(1 0 0 1 -103 -369 )">
    <path d="M 276 138  C 276 215.28  215.28 276  138 276  C 60.72 276  0 215.28  0 138  C 0 60.72  60.72 0  138 0  C 215.28 0  276 60.72  276 138  Z M 18 138  C 18 205.2  70.8 258  138 258  C 205.2 258  258 205.2  258 138  C 258 70.8  205.2 18  138 18  C 70.8 18  18 70.8  18 138  Z " fill-rule="nonzero" fill="#ffffff" stroke="none" transform="matrix(1 0 0 1 103 369 )" />
    <path d="M 276 138  C 276 215.28  215.28 276  138 276  C 60.72 276  0 215.28  0 138  C 0 60.72  60.72 0  138 0  C 215.28 0  276 60.72  276 138  Z " stroke-width="2" stroke="#f2f2f2" fill="none" transform="matrix(1 0 0 1 103 369 )" mask="url(#clip1)" />
    <path d="M 18 138  C 18 205.2  70.8 258  138 258  C 205.2 258  258 205.2  258 138  C 258 70.8  205.2 18  138 18  C 70.8 18  18 70.8  18 138  Z " stroke-width="2" stroke="#f2f2f2" fill="none" transform="matrix(1 0 0 1 103 369 )" mask="url(#clip1)" />
  </g>
</svg>