<?xml version="1.0" encoding="utf-8"?>
<svg version="1.1" xmlns:xlink="http://www.w3.org/1999/xlink" width="70px" height="70px" xmlns="http://www.w3.org/2000/svg">
  <g transform="matrix(1 0 0 1 -2750 -421 )">
    <path d="M 2785 421.5  C 2804.32 421.5  2819.5 436.68  2819.5 456  C 2819.5 475.32  2804.32 490.5  2785 490.5  C 2765.68 490.5  2750.5 475.32  2750.5 456  C 2750.5 436.68  2765.68 421.5  2785 421.5  Z " fill-rule="nonzero" fill="#ffffff" stroke="none" fill-opacity="0" />
    <path d="M 2785 421.5  C 2804.32 421.5  2819.5 436.68  2819.5 456  C 2819.5 475.32  2804.32 490.5  2785 490.5  C 2765.68 490.5  2750.5 475.32  2750.5 456  C 2750.5 436.68  2765.68 421.5  2785 421.5  Z " stroke-width="1" stroke-dasharray="17,8" stroke="#ffff00" fill="none" stroke-dashoffset="0.5" />
  </g>
</svg>