<?xml version="1.0" encoding="utf-8"?>
<svg version="1.1" xmlns:xlink="http://www.w3.org/1999/xlink" width="90px" height="90px" xmlns="http://www.w3.org/2000/svg">
  <defs>
    <filter x="474px" y="905px" width="90px" height="90px" filterUnits="userSpaceOnUse" id="filter603">
      <feOffset dx="0" dy="0" in="SourceAlpha" result="shadowOffsetInner" />
      <feGaussianBlur stdDeviation="10" in="shadowOffsetInner" result="shadowGaussian" />
      <feComposite in2="shadowGaussian" operator="atop" in="SourceAlpha" result="shadowComposite" />
      <feColorMatrix type="matrix" values="0 0 0 0 1  0 0 0 0 1  0 0 0 0 1  0 0 0 0.349019607843137 0  " in="shadowComposite" />
    </filter>
    <g id="widget604">
      <path d="M 519 925  C 533 925  544 936  544 950  C 544 964  533 975  519 975  C 505 975  494 964  494 950  C 494 936  505 925  519 925  Z " fill-rule="nonzero" fill="#aaaaaa" stroke="none" />
      <path d="M 519 925.5  C 532.72 925.5  543.5 936.28  543.5 950  C 543.5 963.72  532.72 974.5  519 974.5  C 505.28 974.5  494.5 963.72  494.5 950  C 494.5 936.28  505.28 925.5  519 925.5  Z " stroke-width="1" stroke="#ffffff" fill="none" />
    </g>
  </defs>
  <g transform="matrix(1 0 0 1 -474 -905 )">
    <use xlink:href="#widget604" filter="url(#filter603)" />
    <use xlink:href="#widget604" />
  </g>
</svg>