<?xml version="1.0" encoding="utf-8"?>
<svg version="1.1" xmlns:xlink="http://www.w3.org/1999/xlink" width="90px" height="90px" xmlns="http://www.w3.org/2000/svg">
  <defs>
    <filter x="541px" y="847px" width="90px" height="90px" filterUnits="userSpaceOnUse" id="filter605">
      <feOffset dx="0" dy="0" in="SourceAlpha" result="shadowOffsetInner" />
      <feGaussianBlur stdDeviation="10" in="shadowOffsetInner" result="shadowGaussian" />
      <feComposite in2="shadowGaussian" operator="atop" in="SourceAlpha" result="shadowComposite" />
      <feColorMatrix type="matrix" values="0 0 0 0 1  0 0 0 0 1  0 0 0 0 1  0 0 0 0.349019607843137 0  " in="shadowComposite" />
    </filter>
    <g id="widget606">
      <path d="M 586 867  C 600 867  611 878  611 892  C 611 906  600 917  586 917  C 572 917  561 906  561 892  C 561 878  572 867  586 867  Z " fill-rule="nonzero" fill="#d7d7d7" stroke="none" />
      <path d="M 586 867.5  C 599.72 867.5  610.5 878.28  610.5 892  C 610.5 905.72  599.72 916.5  586 916.5  C 572.28 916.5  561.5 905.72  561.5 892  C 561.5 878.28  572.28 867.5  586 867.5  Z " stroke-width="1" stroke="#ffffff" fill="none" />
    </g>
  </defs>
  <g transform="matrix(1 0 0 1 -541 -847 )">
    <use xlink:href="#widget606" filter="url(#filter605)" />
    <use xlink:href="#widget606" />
  </g>
</svg>