<?xml version="1.0" encoding="utf-8"?>
<svg version="1.1" xmlns:xlink="http://www.w3.org/1999/xlink" width="168px" height="122px" xmlns="http://www.w3.org/2000/svg">
  <g transform="matrix(1 0 0 1 -158 -617 )">
    <path d="M 178 738.5  L 316 738.5  C 321.32 738.5  325.5 734.32  325.5 729  L 325.5 637  C 325.5 633.019603773678  323.16005511139 629.677374335159  319.753426824863 628.246573175137  C 318.804162307016 625.986446856925  317.013553143075 624.195837692984  314.753426824863 623.246573175137  C 313.322625664841 619.83994488861  309.980396226322 617.5  306 617.5  L 168 617.5  C 162.68 617.5  158.5 621.68  158.5 627  L 158.5 719  C 158.5 722.980396226322  160.83994488861 726.322625664841  164.246573175137 727.753426824863  C 165.195837692984 730.013553143075  166.986446856925 731.804162307016  169.246573175137 732.753426824863  C 170.677374335159 736.16005511139  174.019603773678 738.5  178 738.5  Z " fill-rule="nonzero" fill="#facd91" stroke="none" />
    <path d="M 178.5 738.5  L 315.5 738.5  C 321.1 738.5  325.5 734.1  325.5 728.5  L 325.5 637.5  C 325.5 633.382075431273  323.120786603431 629.913027243428  319.634752186914 628.365247813086  C 318.644031495375 626.13386628665  316.86613371335 624.355968504625  314.634752186914 623.365247813086  C 313.086972756572 619.879213396569  309.617924568727 617.5  305.5 617.5  L 168.5 617.5  C 162.9 617.5  158.5 621.9  158.5 627.5  L 158.5 718.5  C 158.5 722.617924568727  160.879213396569 726.086972756572  164.365247813086 727.634752186914  C 165.355968504626 729.86613371335  167.13386628665 731.644031495375  169.365247813086 732.634752186914  C 170.913027243428 736.120786603431  174.382075431273 738.5  178.5 738.5  Z " stroke-width="1" stroke="#797979" fill="none" />
    <path d="M 319.678014577568 628.071985422432  C 320.207220379431 629.263905668009  320.5 630.592028340291  320.5 632  L 320.5 723.5  C 320.5 729.1  316.1 733.5  310.5 733.5  L 173 733.5  C 169.087971659709 733.5  165.792375881257 731.23974727326  164.321985422432 727.928014577568  M 314.678014577568 623.071985422432  C 315.207220379431 624.263905668009  315.5 625.592028340291  315.5 627  L 315.5 718.499  C 315.5 724.099  311.1 728.499  305.5 728.499  L 168 728.5  C 166.592028340291 728.5  165.263905668009 728.207220379431  164.071985422432 727.678014577568  " stroke-width="1" stroke="#797979" fill="none" />
  </g>
</svg>