<?xml version="1.0" encoding="utf-8"?>
<svg version="1.1" xmlns:xlink="http://www.w3.org/1999/xlink" width="122px" height="122px" xmlns="http://www.w3.org/2000/svg">
  <g transform="matrix(1 0 0 1 -398 -667 )">
    <path d="M 463.5 788.5  L 464.5 788.5  C 495.3 788.5  519.5 764.3  519.5 733.5  L 519.5 732.5  C 519.5 715.803022271985  512.388034049749 701.045671621311  500.968077050635 691.031922949365  C 499.412393236113 689.257777936536  497.742222063464 687.587606763887  495.968077050635 686.031922949365  C 485.954328378689 674.611965950251  471.196977728015 667.5  454.5 667.5  L 453.5 667.5  C 422.7 667.5  398.5 691.7  398.5 722.5  L 398.5 723.5  C 398.5 740.196977728015  405.611965950251 754.954328378689  417.031922949365 764.968077050635  C 418.587606763887 766.742222063464  420.257777936536 768.412393236113  422.031922949365 769.968077050635  C 432.045671621311 781.388034049749  446.803022271985 788.5  463.5 788.5  Z " fill-rule="nonzero" fill="#f59a23" stroke="none" />
    <path d="M 464 788.5  C 495.08 788.5  519.5 764.08  519.5 733  C 519.5 716.163034513677  512.333431065765 701.280587827599  500.823816627765 691.176183372235  C 499.267115231767 689.40299298361  497.597007016389 687.732884768233  495.823816627765 686.176183372235  C 485.719412172401 674.666568934235  470.836965486323 667.5  454 667.5  C 422.92 667.5  398.5 691.92  398.5 723  C 398.5 739.836965486323  405.666568934235 754.719412172401  417.176183372235 764.823816627765  C 418.732884768233 766.59700701639  420.402992983611 768.267115231767  422.176183372235 769.823816627765  C 432.280587827599 781.333431065765  447.163034513677 788.5  464 788.5  Z " stroke-width="1" stroke="#797979" fill="none" />
    <path d="M 500.947025486974 691.007929467981  C 509.417722212472 700.65663798538  514.5 713.385281112573  514.5 727.5  L 514.5 728  C 514.5 759.08  490.08 783.5  459 783.5  L 458.5 783.5  C 441.814718887427 783.5  427.06634829762 776.397994749858  417.052974513026 764.992070532019  M 495.947025486974 686.007929467981  C 504.417722212472 695.65663798538  509.5 708.385281112573  509.5 722.5  L 509.5 722.999  C 509.5 754.079  485.08 778.499  454 778.499  L 453.5 778.5  C 439.385281112573 778.5  426.656637985381 773.417722212472  417.007929467981 764.947025486974  " stroke-width="1" stroke="#797979" fill="none" />
  </g>
</svg>