<?xml version="1.0" encoding="utf-8"?>
<svg version="1.1" xmlns:xlink="http://www.w3.org/1999/xlink" width="140px" height="140px" xmlns="http://www.w3.org/2000/svg">
  <defs>
    <filter x="88px" y="369px" width="140px" height="140px" filterUnits="userSpaceOnUse" id="filter192">
      <feOffset dx="0" dy="0" in="SourceAlpha" result="shadowOffsetInner" />
      <feGaussianBlur stdDeviation="10" in="shadowOffsetInner" result="shadowGaussian" />
      <feComposite in2="shadowGaussian" operator="atop" in="SourceAlpha" result="shadowComposite" />
      <feColorMatrix type="matrix" values="0 0 0 0 1  0 0 0 0 1  0 0 0 0 1  0 0 0 0.349019607843137 0  " in="shadowComposite" />
    </filter>
    <g id="widget193">
      <path d="M 158 389  C 186 389  208 411  208 439  C 208 467  186 489  158 489  C 130 489  108 467  108 439  C 108 411  130 389  158 389  Z " fill-rule="nonzero" fill="#ffffff" stroke="none" />
      <path d="M 158 389.5  C 185.72 389.5  207.5 411.28  207.5 439  C 207.5 466.72  185.72 488.5  158 488.5  C 130.28 488.5  108.5 466.72  108.5 439  C 108.5 411.28  130.28 389.5  158 389.5  Z " stroke-width="1" stroke="#ffffff" fill="none" />
    </g>
  </defs>
  <g transform="matrix(1 0 0 1 -88 -369 )">
    <use xlink:href="#widget193" filter="url(#filter192)" />
    <use xlink:href="#widget193" />
  </g>
</svg>