<?xml version="1.0" encoding="utf-8"?>
<svg version="1.1" xmlns:xlink="http://www.w3.org/1999/xlink" width="80px" height="80px" xmlns="http://www.w3.org/2000/svg">
  <g transform="matrix(1 0 0 1 -1013 -820 )">
    <path d="M 1057.5 899.5  L 1058.5 899.5  C 1077.54 899.5  1092.5 884.54  1092.5 865.5  L 1092.5 864.5  C 1092.5 853.681915978566  1087.67054186358 844.180956903427  1080.00725140809 837.992748591915  C 1078.52217987147 836.153680810193  1076.84631918981 834.477820128531  1075.00725140809 832.992748591915  C 1068.81904309657 825.329458136415  1059.31808402143 820.5  1048.5 820.5  L 1047.5 820.5  C 1028.46 820.5  1013.5 835.46  1013.5 854.5  L 1013.5 855.5  C 1013.5 866.318084021434  1018.32945813642 875.819043096574  1025.99274859192 882.007251408086  C 1027.47782012853 883.846319189808  1029.15368081019 885.522179871469  1030.99274859191 887.007251408085  C 1037.18095690343 894.670541863585  1046.68191597857 899.5  1057.5 899.5  Z " fill-rule="nonzero" fill="#f59a23" stroke="none" />
    <path d="M 1058 899.5  C 1077.32 899.5  1092.5 884.32  1092.5 865  C 1092.5 854.04196762844  1087.61659565211 844.415772806305  1079.86418571136 838.135814288634  C 1078.37640228974 836.299192763988  1076.70080723601 834.623597710254  1074.86418571137 833.135814288635  C 1068.58422719369 825.383404347891  1058.95803237156 820.5  1048 820.5  C 1028.68 820.5  1013.5 835.68  1013.5 855  C 1013.5 865.95803237156  1018.38340434789 875.584227193695  1026.13581428864 881.864185711366  C 1027.62359771026 883.700807236012  1029.29919276399 885.376402289746  1031.13581428863 886.864185711365  C 1037.41577280631 894.616595652109  1047.04196762844 899.5  1058 899.5  Z " stroke-width="1" stroke="#797979" fill="none" />
    <path d="M 1079.97484968656 837.952686545323  C 1084.69757296963 843.782738897419  1087.5 851.259220308204  1087.5 859.5  L 1087.5 860  C 1087.5 879.32  1072.32 894.5  1053 894.5  L 1052.5 894.5  C 1041.7007796918 894.5  1032.21409493955 889.687369628166  1026.02515031344 882.04731345468  M 1074.97484968656 832.952686545321  C 1079.69757296963 838.782738897418  1082.5 846.259220308204  1082.5 854.5  L 1082.5 854.999  C 1082.5 874.319  1067.32 889.499  1048 889.499  L 1047.5 889.5  C 1039.2592203082 889.5  1031.78273889742 886.697572969628  1025.95268654532 881.974849686564  " stroke-width="1" stroke="#797979" fill="none" />
  </g>
</svg>