<?xml version="1.0" encoding="utf-8"?>
<svg version="1.1" xmlns:xlink="http://www.w3.org/1999/xlink" width="95px" height="60px" xmlns="http://www.w3.org/2000/svg">
  <g transform="matrix(1 0 0 1 -1194 -773 )">
    <path d="M 1214 832.5  L 1279 832.5  C 1284.32 832.5  1288.5 828.32  1288.5 823  L 1288.5 793  C 1288.5 789.019603773678  1286.16005511139 785.677374335159  1282.75342682486 784.246573175137  C 1281.80416230702 781.986446856925  1280.01355314308 780.195837692984  1277.75342682486 779.246573175137  C 1276.32262566484 775.83994488861  1272.98039622632 773.5  1269 773.5  L 1204 773.5  C 1198.68 773.5  1194.5 777.68  1194.5 783  L 1194.5 813  C 1194.5 816.980396226322  1196.83994488861 820.322625664841  1200.24657317514 821.753426824863  C 1201.19583769298 824.013553143075  1202.98644685692 825.804162307016  1205.24657317514 826.753426824863  C 1206.67737433516 830.16005511139  1210.01960377368 832.5  1214 832.5  Z " fill-rule="nonzero" fill="#facd91" stroke="none" />
    <path d="M 1214.5 832.5  L 1278.5 832.5  C 1284.1 832.5  1288.5 828.1  1288.5 822.5  L 1288.5 793.5  C 1288.5 789.382075431273  1286.12078660343 785.913027243428  1282.63475218691 784.365247813086  C 1281.64403149537 782.13386628665  1279.86613371335 780.355968504625  1277.63475218691 779.365247813086  C 1276.08697275657 775.879213396569  1272.61792456873 773.5  1268.5 773.5  L 1204.5 773.5  C 1198.9 773.5  1194.5 777.9  1194.5 783.5  L 1194.5 812.5  C 1194.5 816.617924568727  1196.87921339657 820.086972756572  1200.36524781309 821.634752186914  C 1201.35596850463 823.86613371335  1203.13386628665 825.644031495375  1205.36524781309 826.634752186914  C 1206.91302724343 830.120786603431  1210.38207543127 832.5  1214.5 832.5  Z " stroke-width="1" stroke="#797979" fill="none" />
    <path d="M 1282.67801457757 784.071985422432  C 1283.20722037943 785.263905668009  1283.5 786.592028340291  1283.5 788  L 1283.5 817.5  C 1283.5 823.1  1279.1 827.5  1273.5 827.5  L 1209 827.5  C 1205.08797165971 827.5  1201.79237588126 825.23974727326  1200.32198542243 821.928014577568  M 1277.67801457757 779.071985422432  C 1278.20722037943 780.263905668009  1278.5 781.592028340291  1278.5 783  L 1278.5 812.499  C 1278.5 818.099  1274.1 822.499  1268.5 822.499  L 1204 822.5  C 1202.59202834029 822.5  1201.26390566801 822.207220379431  1200.07198542243 821.678014577568  " stroke-width="1" stroke="#797979" fill="none" />
  </g>
</svg>