<?xml version="1.0" encoding="utf-8"?>
<svg version="1.1" xmlns:xlink="http://www.w3.org/1999/xlink" width="143px" height="143px" xmlns="http://www.w3.org/2000/svg">
  <g transform="matrix(1 0 0 1 -1845 -1303 )">
    <path d="M 1916.5 1303  C 1956.54 1303  1988 1334.46  1988 1374.5  C 1988 1414.54  1956.54 1446  1916.5 1446  C 1876.46 1446  1845 1414.54  1845 1374.5  C 1845 1334.46  1876.46 1303  1916.5 1303  Z " fill-rule="nonzero" fill="#ffffff" stroke="none" />
    <path d="M 1916.5 1303.5  C 1956.26 1303.5  1987.5 1334.74  1987.5 1374.5  C 1987.5 1414.26  1956.26 1445.5  1916.5 1445.5  C 1876.74 1445.5  1845.5 1414.26  1845.5 1374.5  C 1845.5 1334.74  1876.74 1303.5  1916.5 1303.5  Z " stroke-width="1" stroke="#d7d7d7" fill="none" />
  </g>
</svg>