<?xml version="1.0" encoding="utf-8"?>
<svg version="1.1" xmlns:xlink="http://www.w3.org/1999/xlink" width="50px" height="50px" xmlns="http://www.w3.org/2000/svg">
  <g transform="matrix(1 0 0 1 -532 -2030 )">
    <path d="M 557 2034  C 568.76 2034  578 2043.24  578 2055  C 578 2066.76  568.76 2076  557 2076  C 545.24 2076  536 2066.76  536 2055  C 536 2043.24  545.24 2034  557 2034  Z " fill-rule="nonzero" fill="#ffffff" stroke="none" fill-opacity="0" />
    <path d="M 557 2032.5  C 569.6 2032.5  579.5 2042.4  579.5 2055  C 579.5 2067.6  569.6 2077.5  557 2077.5  C 544.4 2077.5  534.5 2067.6  534.5 2055  C 534.5 2042.4  544.4 2032.5  557 2032.5  Z " stroke-width="5" stroke="#ec808d" fill="none" />
  </g>
</svg>