<?xml version="1.0" encoding="utf-8"?>
<svg version="1.1" xmlns:xlink="http://www.w3.org/1999/xlink" width="80px" height="80px" xmlns="http://www.w3.org/2000/svg">
  <defs>
    <filter x="517px" y="2015px" width="80px" height="80px" filterUnits="userSpaceOnUse" id="filter262">
      <feOffset dx="0" dy="0" in="SourceAlpha" result="shadowOffsetInner" />
      <feGaussianBlur stdDeviation="10" in="shadowOffsetInner" result="shadowGaussian" />
      <feComposite in2="shadowGaussian" operator="atop" in="SourceAlpha" result="shadowComposite" />
      <feColorMatrix type="matrix" values="0 0 0 0 1  0 0 0 0 1  0 0 0 0 1  0 0 0 0.349019607843137 0  " in="shadowComposite" />
    </filter>
    <g id="widget263">
      <path d="M 557 2035  C 568.2 2035  577 2043.8  577 2055  C 577 2066.2  568.2 2075  557 2075  C 545.8 2075  537 2066.2  537 2055  C 537 2043.8  545.8 2035  557 2035  Z " fill-rule="nonzero" fill="#d9001b" stroke="none" />
      <path d="M 557 2035.5  C 567.92 2035.5  576.5 2044.08  576.5 2055  C 576.5 2065.92  567.92 2074.5  557 2074.5  C 546.08 2074.5  537.5 2065.92  537.5 2055  C 537.5 2044.08  546.08 2035.5  557 2035.5  Z " stroke-width="1" stroke="#ffffff" fill="none" />
    </g>
  </defs>
  <g transform="matrix(1 0 0 1 -517 -2015 )">
    <use xlink:href="#widget263" filter="url(#filter262)" />
    <use xlink:href="#widget263" />
  </g>
</svg>