<?xml version="1.0" encoding="utf-8"?>
<svg version="1.1" xmlns:xlink="http://www.w3.org/1999/xlink" width="12px" height="12px" xmlns="http://www.w3.org/2000/svg">
  <g transform="matrix(1 0 0 1 -1590 -249 )">
    <path d="M 1596 249  C 1599.36 249  1602 251.64  1602 255  C 1602 258.36  1599.36 261  1596 261  C 1592.64 261  1590 258.36  1590 255  C 1590 251.64  1592.64 249  1596 249  Z " fill-rule="nonzero" fill="#333333" stroke="none" />
    <path d="M 1596 249.5  C 1599.08 249.5  1601.5 251.92  1601.5 255  C 1601.5 258.08  1599.08 260.5  1596 260.5  C 1592.92 260.5  1590.5 258.08  1590.5 255  C 1590.5 251.92  1592.92 249.5  1596 249.5  Z " stroke-width="1" stroke="#797979" fill="none" />
  </g>
</svg>