<?xml version="1.0" encoding="utf-8"?>
<svg version="1.1" xmlns:xlink="http://www.w3.org/1999/xlink" width="70px" height="70px" xmlns="http://www.w3.org/2000/svg">
  <defs>
    <filter x="452px" y="361px" width="70px" height="70px" filterUnits="userSpaceOnUse" id="filter27">
      <feOffset dx="0" dy="0" in="SourceAlpha" result="shadowOffsetInner" />
      <feGaussianBlur stdDeviation="10" in="shadowOffsetInner" result="shadowGaussian" />
      <feComposite in2="shadowGaussian" operator="atop" in="SourceAlpha" result="shadowComposite" />
      <feColorMatrix type="matrix" values="0 0 0 0 1  0 0 0 0 1  0 0 0 0 1  0 0 0 0.349019607843137 0  " in="shadowComposite" />
    </filter>
    <g id="widget28">
      <path d="M 487 381  C 495.4 381  502 387.6  502 396  C 502 404.4  495.4 411  487 411  C 478.6 411  472 404.4  472 396  C 472 387.6  478.6 381  487 381  Z " fill-rule="nonzero" fill="#95f204" stroke="none" />
      <path d="M 487 381.5  C 495.12 381.5  501.5 387.88  501.5 396  C 501.5 404.12  495.12 410.5  487 410.5  C 478.88 410.5  472.5 404.12  472.5 396  C 472.5 387.88  478.88 381.5  487 381.5  Z " stroke-width="1" stroke="#ffffff" fill="none" />
    </g>
  </defs>
  <g transform="matrix(1 0 0 1 -452 -361 )">
    <use xlink:href="#widget28" filter="url(#filter27)" />
    <use xlink:href="#widget28" />
  </g>
</svg>