<?xml version="1.0" encoding="utf-8"?>
<svg version="1.1" xmlns:xlink="http://www.w3.org/1999/xlink" width="90px" height="90px" xmlns="http://www.w3.org/2000/svg">
  <defs>
    <filter x="577px" y="314px" width="90px" height="90px" filterUnits="userSpaceOnUse" id="filter209">
      <feOffset dx="0" dy="0" in="SourceAlpha" result="shadowOffsetInner" />
      <feGaussianBlur stdDeviation="10" in="shadowOffsetInner" result="shadowGaussian" />
      <feComposite in2="shadowGaussian" operator="atop" in="SourceAlpha" result="shadowComposite" />
      <feColorMatrix type="matrix" values="0 0 0 0 1  0 0 0 0 1  0 0 0 0 1  0 0 0 0.349019607843137 0  " in="shadowComposite" />
    </filter>
    <g id="widget210">
      <path d="M 622 334  C 636 334  647 345  647 359  C 647 373  636 384  622 384  C 608 384  597 373  597 359  C 597 345  608 334  622 334  Z " fill-rule="nonzero" fill="#ec808d" stroke="none" />
      <path d="M 622 334.5  C 635.72 334.5  646.5 345.28  646.5 359  C 646.5 372.72  635.72 383.5  622 383.5  C 608.28 383.5  597.5 372.72  597.5 359  C 597.5 345.28  608.28 334.5  622 334.5  Z " stroke-width="1" stroke="#ffffff" fill="none" />
    </g>
  </defs>
  <g transform="matrix(1 0 0 1 -577 -314 )">
    <use xlink:href="#widget210" filter="url(#filter209)" />
    <use xlink:href="#widget210" />
  </g>
</svg>