<?xml version="1.0" encoding="utf-8"?>
<svg version="1.1" xmlns:xlink="http://www.w3.org/1999/xlink" width="40px" height="40px" xmlns="http://www.w3.org/2000/svg">
  <g transform="matrix(1 0 0 1 -1228 -312 )">
    <path d="M 1248 316  C 1256.96 316  1264 323.04  1264 332  C 1264 340.96  1256.96 348  1248 348  C 1239.04 348  1232 340.96  1232 332  C 1232 323.04  1239.04 316  1248 316  Z " fill-rule="nonzero" fill="#ffffff" stroke="none" fill-opacity="0" />
    <path d="M 1248 314.5  C 1257.8 314.5  1265.5 322.2  1265.5 332  C 1265.5 341.8  1257.8 349.5  1248 349.5  C 1238.2 349.5  1230.5 341.8  1230.5 332  C 1230.5 322.2  1238.2 314.5  1248 314.5  Z " stroke-width="5" stroke="#80ffff" fill="none" />
  </g>
</svg>