<?xml version="1.0" encoding="utf-8"?>
<svg version="1.1" xmlns:xlink="http://www.w3.org/1999/xlink" width="70px" height="70px" xmlns="http://www.w3.org/2000/svg">
  <defs>
    <filter x="432px" y="412px" width="70px" height="70px" filterUnits="userSpaceOnUse" id="filter559">
      <feOffset dx="0" dy="0" in="SourceAlpha" result="shadowOffsetInner" />
      <feGaussianBlur stdDeviation="10" in="shadowOffsetInner" result="shadowGaussian" />
      <feComposite in2="shadowGaussian" operator="atop" in="SourceAlpha" result="shadowComposite" />
      <feColorMatrix type="matrix" values="0 0 0 0 1  0 0 0 0 1  0 0 0 0 1  0 0 0 0.349019607843137 0  " in="shadowComposite" />
    </filter>
    <g id="widget560">
      <path d="M 467 432  C 475.4 432  482 438.6  482 447  C 482 455.4  475.4 462  467 462  C 458.6 462  452 455.4  452 447  C 452 438.6  458.6 432  467 432  Z " fill-rule="nonzero" fill="#f59a23" stroke="none" />
      <path d="M 467 432.5  C 475.12 432.5  481.5 438.88  481.5 447  C 481.5 455.12  475.12 461.5  467 461.5  C 458.88 461.5  452.5 455.12  452.5 447  C 452.5 438.88  458.88 432.5  467 432.5  Z " stroke-width="1" stroke="#ffffff" fill="none" />
    </g>
  </defs>
  <g transform="matrix(1 0 0 1 -432 -412 )">
    <use xlink:href="#widget560" filter="url(#filter559)" />
    <use xlink:href="#widget560" />
  </g>
</svg>