<?xml version="1.0" encoding="utf-8"?>
<svg version="1.1" xmlns:xlink="http://www.w3.org/1999/xlink" width="100px" height="100px" xmlns="http://www.w3.org/2000/svg">
  <defs>
    <filter x="1128px" y="378px" width="100px" height="100px" filterUnits="userSpaceOnUse" id="filter287">
      <feOffset dx="0" dy="0" in="SourceAlpha" result="shadowOffsetInner" />
      <feGaussianBlur stdDeviation="10" in="shadowOffsetInner" result="shadowGaussian" />
      <feComposite in2="shadowGaussian" operator="atop" in="SourceAlpha" result="shadowComposite" />
      <feColorMatrix type="matrix" values="0 0 0 0 1  0 0 0 0 1  0 0 0 0 1  0 0 0 0.349019607843137 0  " in="shadowComposite" />
    </filter>
    <g id="widget288">
      <path d="M 1178 398  C 1194.8 398  1208 411.2  1208 428  C 1208 444.8  1194.8 458  1178 458  C 1161.2 458  1148 444.8  1148 428  C 1148 411.2  1161.2 398  1178 398  Z " fill-rule="nonzero" fill="#c280ff" stroke="none" />
      <path d="M 1178 398.5  C 1194.52 398.5  1207.5 411.48  1207.5 428  C 1207.5 444.52  1194.52 457.5  1178 457.5  C 1161.48 457.5  1148.5 444.52  1148.5 428  C 1148.5 411.48  1161.48 398.5  1178 398.5  Z " stroke-width="1" stroke="#ffffff" fill="none" />
    </g>
  </defs>
  <g transform="matrix(1 0 0 1 -1128 -378 )">
    <use xlink:href="#widget288" filter="url(#filter287)" />
    <use xlink:href="#widget288" />
  </g>
</svg>