<?xml version="1.0" encoding="utf-8"?>
<svg version="1.1" xmlns:xlink="http://www.w3.org/1999/xlink" width="70px" height="70px" xmlns="http://www.w3.org/2000/svg">
  <defs>
    <filter x="1213px" y="297px" width="70px" height="70px" filterUnits="userSpaceOnUse" id="filter575">
      <feOffset dx="0" dy="0" in="SourceAlpha" result="shadowOffsetInner" />
      <feGaussianBlur stdDeviation="10" in="shadowOffsetInner" result="shadowGaussian" />
      <feComposite in2="shadowGaussian" operator="atop" in="SourceAlpha" result="shadowComposite" />
      <feColorMatrix type="matrix" values="0 0 0 0 1  0 0 0 0 1  0 0 0 0 1  0 0 0 0.349019607843137 0  " in="shadowComposite" />
    </filter>
    <g id="widget576">
      <path d="M 1248 317  C 1256.4 317  1263 323.6  1263 332  C 1263 340.4  1256.4 347  1248 347  C 1239.6 347  1233 340.4  1233 332  C 1233 323.6  1239.6 317  1248 317  Z " fill-rule="nonzero" fill="#81d3f8" stroke="none" />
      <path d="M 1248 317.5  C 1256.12 317.5  1262.5 323.88  1262.5 332  C 1262.5 340.12  1256.12 346.5  1248 346.5  C 1239.88 346.5  1233.5 340.12  1233.5 332  C 1233.5 323.88  1239.88 317.5  1248 317.5  Z " stroke-width="1" stroke="#ffffff" fill="none" />
    </g>
  </defs>
  <g transform="matrix(1 0 0 1 -1213 -297 )">
    <use xlink:href="#widget576" filter="url(#filter575)" />
    <use xlink:href="#widget576" />
  </g>
</svg>