<?xml version="1.0" encoding="utf-8"?>
<svg version="1.1" xmlns:xlink="http://www.w3.org/1999/xlink" width="190px" height="190px" xmlns="http://www.w3.org/2000/svg">
  <defs>
    <filter x="276px" y="3125px" width="190px" height="190px" filterUnits="userSpaceOnUse" id="filter255">
      <feOffset dx="0" dy="0" in="SourceAlpha" result="shadowOffsetInner" />
      <feGaussianBlur stdDeviation="7.5" in="shadowOffsetInner" result="shadowGaussian" />
      <feComposite in2="shadowGaussian" operator="atop" in="SourceAlpha" result="shadowComposite" />
      <feColorMatrix type="matrix" values="0 0 0 0 1  0 0 0 0 1  0 0 0 0 0  0 0 0 0.972549019607843 0  " in="shadowComposite" />
    </filter>
    <g id="widget256">
      <path d="M 371 3141.5  C 414.96 3141.5  449.5 3176.04  449.5 3220  C 449.5 3263.96  414.96 3298.5  371 3298.5  C 327.04 3298.5  292.5 3263.96  292.5 3220  C 292.5 3176.04  327.04 3141.5  371 3141.5  Z " fill-rule="nonzero" fill="#ffff00" stroke="none" fill-opacity="0" />
      <path d="M 371 3141  C 415.24 3141  450 3175.76  450 3220  C 450 3264.24  415.24 3299  371 3299  C 326.76 3299  292 3264.24  292 3220  C 292 3175.76  326.76 3141  371 3141  Z " stroke-width="2" stroke-dasharray="6,2" stroke="#ffff80" fill="none" />
    </g>
  </defs>
  <g transform="matrix(1 0 0 1 -276 -3125 )">
    <use xlink:href="#widget256" filter="url(#filter255)" />
    <use xlink:href="#widget256" />
  </g>
</svg>