<?xml version="1.0" encoding="utf-8"?>
<svg version="1.1" xmlns:xlink="http://www.w3.org/1999/xlink" width="80px" height="80px" xmlns="http://www.w3.org/2000/svg">
  <defs>
    <filter x="1215px" y="851px" width="80px" height="80px" filterUnits="userSpaceOnUse" id="filter577">
      <feOffset dx="0" dy="0" in="SourceAlpha" result="shadowOffsetInner" />
      <feGaussianBlur stdDeviation="10" in="shadowOffsetInner" result="shadowGaussian" />
      <feComposite in2="shadowGaussian" operator="atop" in="SourceAlpha" result="shadowComposite" />
      <feColorMatrix type="matrix" values="0 0 0 0 1  0 0 0 0 1  0 0 0 0 1  0 0 0 0.349019607843137 0  " in="shadowComposite" />
    </filter>
    <g id="widget578">
      <path d="M 1255 871  C 1266.2 871  1275 879.8  1275 891  C 1275 902.2  1266.2 911  1255 911  C 1243.8 911  1235 902.2  1235 891  C 1235 879.8  1243.8 871  1255 871  Z " fill-rule="nonzero" fill="#95f204" stroke="none" />
      <path d="M 1255 871.5  C 1265.92 871.5  1274.5 880.08  1274.5 891  C 1274.5 901.92  1265.92 910.5  1255 910.5  C 1244.08 910.5  1235.5 901.92  1235.5 891  C 1235.5 880.08  1244.08 871.5  1255 871.5  Z " stroke-width="1" stroke="#ffffff" fill="none" />
    </g>
  </defs>
  <g transform="matrix(1 0 0 1 -1215 -851 )">
    <use xlink:href="#widget578" filter="url(#filter577)" />
    <use xlink:href="#widget578" />
  </g>
</svg>