<?xml version="1.0" encoding="utf-8"?>
<svg version="1.1" xmlns:xlink="http://www.w3.org/1999/xlink" width="170px" height="170px" xmlns="http://www.w3.org/2000/svg">
  <g transform="matrix(1 0 0 1 -444 -254 )">
    <path d="M 529 254  C 576.6 254  614 291.4  614 339  C 614 386.6  576.6 424  529 424  C 481.4 424  444 386.6  444 339  C 444 291.4  481.4 254  529 254  Z " fill-rule="nonzero" fill="#ffffff" stroke="none" />
    <path d="M 529 254.5  C 576.32 254.5  613.5 291.68  613.5 339  C 613.5 386.32  576.32 423.5  529 423.5  C 481.68 423.5  444.5 386.32  444.5 339  C 444.5 291.68  481.68 254.5  529 254.5  Z " stroke-width="1" stroke="#797979" fill="none" />
  </g>
</svg>