<?xml version="1.0" encoding="utf-8"?>
<svg version="1.1" xmlns:xlink="http://www.w3.org/1999/xlink" width="100px" height="100px" xmlns="http://www.w3.org/2000/svg">
  <defs>
    <filter x="479px" y="287px" width="100px" height="100px" filterUnits="userSpaceOnUse" id="filter257">
      <feOffset dx="0" dy="0" in="SourceAlpha" result="shadowOffsetInner" />
      <feGaussianBlur stdDeviation="10" in="shadowOffsetInner" result="shadowGaussian" />
      <feComposite in2="shadowGaussian" operator="atop" in="SourceAlpha" result="shadowComposite" />
      <feColorMatrix type="matrix" values="0 0 0 0 1  0 0 0 0 1  0 0 0 0 1  0 0 0 0.349019607843137 0  " in="shadowComposite" />
    </filter>
    <g id="widget258">
      <path d="M 529 307  C 545.8 307  559 320.2  559 337  C 559 353.8  545.8 367  529 367  C 512.2 367  499 353.8  499 337  C 499 320.2  512.2 307  529 307  Z " fill-rule="nonzero" fill="#81d3f8" stroke="none" />
      <path d="M 529 307.5  C 545.52 307.5  558.5 320.48  558.5 337  C 558.5 353.52  545.52 366.5  529 366.5  C 512.48 366.5  499.5 353.52  499.5 337  C 499.5 320.48  512.48 307.5  529 307.5  Z " stroke-width="1" stroke="#ffffff" fill="none" />
    </g>
  </defs>
  <g transform="matrix(1 0 0 1 -479 -287 )">
    <use xlink:href="#widget258" filter="url(#filter257)" />
    <use xlink:href="#widget258" />
  </g>
</svg>