<?xml version="1.0" encoding="utf-8"?>
<svg version="1.1" xmlns:xlink="http://www.w3.org/1999/xlink" width="200px" height="200px" xmlns="http://www.w3.org/2000/svg">
  <defs>
    <filter x="271px" y="3120px" width="200px" height="200px" filterUnits="userSpaceOnUse" id="filter299">
      <feOffset dx="0" dy="0" in="SourceAlpha" result="shadowOffsetInner" />
      <feGaussianBlur stdDeviation="7.5" in="shadowOffsetInner" result="shadowGaussian" />
      <feComposite in2="shadowGaussian" operator="atop" in="SourceAlpha" result="shadowComposite" />
      <feColorMatrix type="matrix" values="0 0 0 0 1  0 0 0 0 1  0 0 0 0 0  0 0 0 0.972549019607843 0  " in="shadowComposite" />
    </filter>
    <g id="widget300">
      <path d="M 371 3135.5  C 418.32 3135.5  455.5 3172.68  455.5 3220  C 455.5 3267.32  418.32 3304.5  371 3304.5  C 323.68 3304.5  286.5 3267.32  286.5 3220  C 286.5 3172.68  323.68 3135.5  371 3135.5  Z " fill-rule="nonzero" fill="#ffff00" stroke="none" fill-opacity="0" />
      <path d="M 371 3135.5  C 418.32 3135.5  455.5 3172.68  455.5 3220  C 455.5 3267.32  418.32 3304.5  371 3304.5  C 323.68 3304.5  286.5 3267.32  286.5 3220  C 286.5 3172.68  323.68 3135.5  371 3135.5  Z " stroke-width="1" stroke-dasharray="1,1" stroke="#ffff80" fill="none" stroke-dashoffset="0.5" />
    </g>
  </defs>
  <g transform="matrix(1 0 0 1 -271 -3120 )">
    <use xlink:href="#widget300" filter="url(#filter299)" />
    <use xlink:href="#widget300" />
  </g>
</svg>